<mxfile host="app.diagrams.net" agent="Mozilla/5.0 (X11; Linux x86_64; rv:134.0) Gecko/20100101 Firefox/134.0" version="26.1.1" pages="3">
  <diagram id="C5RBs43oDa-KdzZeNtuy" name="Page-1">
    <mxGraphModel dx="768" dy="434" grid="1" gridSize="10" guides="1" tooltips="1" connect="1" arrows="1" fold="1" page="1" pageScale="1" pageWidth="827" pageHeight="1169" math="0" shadow="0">
      <root>
        <mxCell id="WIyWlLk6GJQsqaUBKTNV-0" />
        <mxCell id="WIyWlLk6GJQsqaUBKTNV-1" parent="WIyWlLk6GJQsqaUBKTNV-0" />
        <mxCell id="WIyWlLk6GJQsqaUBKTNV-2" value="" style="rounded=0;html=1;jettySize=auto;orthogonalLoop=1;fontSize=11;endArrow=block;endFill=0;endSize=8;strokeWidth=1;shadow=0;labelBackgroundColor=none;edgeStyle=orthogonalEdgeStyle;entryX=0.5;entryY=0;entryDx=0;entryDy=0;" parent="WIyWlLk6GJQsqaUBKTNV-1" source="WIyWlLk6GJQsqaUBKTNV-3" target="2_le9uJdAOXQryCShzbI-1" edge="1">
          <mxGeometry relative="1" as="geometry">
            <mxPoint x="220" y="170" as="targetPoint" />
          </mxGeometry>
        </mxCell>
        <mxCell id="WIyWlLk6GJQsqaUBKTNV-3" value="Generazione&lt;br&gt;test input" style="rounded=1;whiteSpace=wrap;html=1;fontSize=12;glass=0;strokeWidth=1;shadow=0;" parent="WIyWlLk6GJQsqaUBKTNV-1" vertex="1">
          <mxGeometry x="160" y="80" width="120" height="40" as="geometry" />
        </mxCell>
        <mxCell id="WIyWlLk6GJQsqaUBKTNV-4" value="Yes" style="rounded=0;html=1;jettySize=auto;orthogonalLoop=1;fontSize=11;endArrow=block;endFill=0;endSize=8;strokeWidth=1;shadow=0;labelBackgroundColor=none;edgeStyle=orthogonalEdgeStyle;" parent="WIyWlLk6GJQsqaUBKTNV-1" edge="1">
          <mxGeometry y="20" relative="1" as="geometry">
            <mxPoint as="offset" />
            <mxPoint x="220" y="250" as="sourcePoint" />
          </mxGeometry>
        </mxCell>
        <mxCell id="WIyWlLk6GJQsqaUBKTNV-5" value="No" style="edgeStyle=orthogonalEdgeStyle;rounded=0;html=1;jettySize=auto;orthogonalLoop=1;fontSize=11;endArrow=block;endFill=0;endSize=8;strokeWidth=1;shadow=0;labelBackgroundColor=none;" parent="WIyWlLk6GJQsqaUBKTNV-1" edge="1">
          <mxGeometry y="10" relative="1" as="geometry">
            <mxPoint as="offset" />
            <mxPoint x="320" y="210" as="targetPoint" />
          </mxGeometry>
        </mxCell>
        <mxCell id="WIyWlLk6GJQsqaUBKTNV-8" value="Si" style="rounded=0;html=1;jettySize=auto;orthogonalLoop=1;fontSize=11;endArrow=block;endFill=0;endSize=8;strokeWidth=1;shadow=0;labelBackgroundColor=none;edgeStyle=orthogonalEdgeStyle;exitX=0.5;exitY=1;exitDx=0;exitDy=0;" parent="WIyWlLk6GJQsqaUBKTNV-1" source="2_le9uJdAOXQryCShzbI-0" target="WIyWlLk6GJQsqaUBKTNV-11" edge="1">
          <mxGeometry y="10" relative="1" as="geometry">
            <mxPoint as="offset" />
            <mxPoint x="220" y="370" as="sourcePoint" />
          </mxGeometry>
        </mxCell>
        <mxCell id="WIyWlLk6GJQsqaUBKTNV-9" value="Yes" style="edgeStyle=orthogonalEdgeStyle;rounded=0;html=1;jettySize=auto;orthogonalLoop=1;fontSize=11;endArrow=block;endFill=0;endSize=8;strokeWidth=1;shadow=0;labelBackgroundColor=none;" parent="WIyWlLk6GJQsqaUBKTNV-1" edge="1">
          <mxGeometry y="10" relative="1" as="geometry">
            <mxPoint as="offset" />
            <mxPoint x="270" y="330" as="sourcePoint" />
          </mxGeometry>
        </mxCell>
        <mxCell id="WIyWlLk6GJQsqaUBKTNV-11" value="Bug segnalato" style="rounded=1;whiteSpace=wrap;html=1;fontSize=12;glass=0;strokeWidth=1;shadow=0;" parent="WIyWlLk6GJQsqaUBKTNV-1" vertex="1">
          <mxGeometry x="160" y="360" width="120" height="40" as="geometry" />
        </mxCell>
        <mxCell id="2_le9uJdAOXQryCShzbI-0" value="&lt;div&gt;&lt;br&gt;&lt;/div&gt;&lt;div&gt;Comportamento&lt;/div&gt;&lt;div&gt;anomalo?&lt;/div&gt;" style="rhombus;whiteSpace=wrap;html=1;shadow=0;fontFamily=Helvetica;fontSize=12;align=center;strokeWidth=1;spacing=6;spacingTop=-4;" parent="WIyWlLk6GJQsqaUBKTNV-1" vertex="1">
          <mxGeometry x="160" y="240" width="120" height="80" as="geometry" />
        </mxCell>
        <mxCell id="2_le9uJdAOXQryCShzbI-1" value="Esecuzione&lt;br&gt;programma" style="rounded=1;whiteSpace=wrap;html=1;fontSize=12;glass=0;strokeWidth=1;shadow=0;" parent="WIyWlLk6GJQsqaUBKTNV-1" vertex="1">
          <mxGeometry x="160" y="160" width="120" height="40" as="geometry" />
        </mxCell>
        <mxCell id="2_le9uJdAOXQryCShzbI-10" value="" style="rounded=0;html=1;jettySize=auto;orthogonalLoop=1;fontSize=11;endArrow=block;endFill=0;endSize=8;strokeWidth=1;shadow=0;labelBackgroundColor=none;edgeStyle=orthogonalEdgeStyle;entryX=0.5;entryY=0;entryDx=0;entryDy=0;exitX=0.5;exitY=1;exitDx=0;exitDy=0;" parent="WIyWlLk6GJQsqaUBKTNV-1" source="2_le9uJdAOXQryCShzbI-1" target="2_le9uJdAOXQryCShzbI-0" edge="1">
          <mxGeometry relative="1" as="geometry">
            <mxPoint x="219.74" y="200" as="sourcePoint" />
            <mxPoint x="219.74" y="240" as="targetPoint" />
          </mxGeometry>
        </mxCell>
        <mxCell id="2_le9uJdAOXQryCShzbI-12" value="" style="rounded=0;html=1;jettySize=auto;orthogonalLoop=1;fontSize=11;endArrow=block;endFill=0;endSize=8;strokeWidth=1;shadow=0;labelBackgroundColor=none;edgeStyle=orthogonalEdgeStyle;entryX=1;entryY=0.5;entryDx=0;entryDy=0;" parent="WIyWlLk6GJQsqaUBKTNV-1" target="WIyWlLk6GJQsqaUBKTNV-3" edge="1">
          <mxGeometry relative="1" as="geometry">
            <mxPoint x="320" y="100" as="sourcePoint" />
            <mxPoint x="230" y="170" as="targetPoint" />
          </mxGeometry>
        </mxCell>
        <mxCell id="2_le9uJdAOXQryCShzbI-14" value="No" style="rounded=0;html=1;jettySize=auto;orthogonalLoop=1;fontSize=11;endArrow=none;endFill=0;endSize=8;strokeWidth=1;shadow=0;labelBackgroundColor=none;edgeStyle=orthogonalEdgeStyle;exitX=1;exitY=0.5;exitDx=0;exitDy=0;startFill=0;" parent="WIyWlLk6GJQsqaUBKTNV-1" source="2_le9uJdAOXQryCShzbI-0" edge="1">
          <mxGeometry x="-0.8186" y="10" relative="1" as="geometry">
            <mxPoint as="offset" />
            <mxPoint x="300" y="280" as="sourcePoint" />
            <mxPoint x="320" y="100" as="targetPoint" />
          </mxGeometry>
        </mxCell>
      </root>
    </mxGraphModel>
  </diagram>
  <diagram id="fQzG9FDBHjtTZfhxsWhm" name="Pagina-2">
    <mxGraphModel dx="1114" dy="629" grid="1" gridSize="10" guides="1" tooltips="1" connect="1" arrows="1" fold="1" page="1" pageScale="1" pageWidth="827" pageHeight="1169" math="0" shadow="0">
      <root>
        <mxCell id="0" />
        <mxCell id="1" parent="0" />
        <mxCell id="4Zr4ibk4Q6zuj0zjEnXS-1" value="Ownership kind" style="rounded=1;fillColor=#BABABA;strokeColor=none;shadow=1;gradientColor=none;fontStyle=0;fontColor=default;fontSize=16;labelBorderColor=none;textShadow=0;labelBackgroundColor=none;fontFamily=Computer Modern;fontSource=https%3A%2F%2Ffonts.googleapis.com%2Fcss%3Ffamily%3DComputer%2BModern;rotation=0;" vertex="1" parent="1">
          <mxGeometry x="422" y="220" width="190" height="50" as="geometry" />
        </mxCell>
        <mxCell id="4Zr4ibk4Q6zuj0zjEnXS-2" value="Data Ownership" style="rounded=1;fillColor=#BABABA;strokeColor=none;shadow=1;fontStyle=0;fontSize=16;fontFamily=Computer Modern;fontSource=https%3A%2F%2Ffonts.googleapis.com%2Fcss%3Ffamily%3DComputer%2BModern;rotation=0;" vertex="1" parent="1">
          <mxGeometry x="422" y="320" width="190" height="50" as="geometry" />
        </mxCell>
        <mxCell id="4Zr4ibk4Q6zuj0zjEnXS-3" value="Shared" style="rounded=1;fillColor=#BABABA;strokeColor=none;shadow=1;gradientColor=none;fontStyle=0;fontColor=default;fontSize=16;fontFamily=Computer Modern;fontSource=https%3A%2F%2Ffonts.googleapis.com%2Fcss%3Ffamily%3DComputer%2BModern;" vertex="1" parent="1">
          <mxGeometry x="290" y="450" width="190" height="50" as="geometry" />
        </mxCell>
        <mxCell id="4Zr4ibk4Q6zuj0zjEnXS-4" value="Exclusive" style="rounded=1;fillColor=#BABABA;strokeColor=none;shadow=1;gradientColor=none;fontStyle=0;fontColor=default;fontSize=16;fontFamily=Computer Modern;fontSource=https%3A%2F%2Ffonts.googleapis.com%2Fcss%3Ffamily%3DComputer%2BModern;" vertex="1" parent="1">
          <mxGeometry x="560" y="450" width="190" height="50" as="geometry" />
        </mxCell>
        <mxCell id="4Zr4ibk4Q6zuj0zjEnXS-5" value="" style="edgeStyle=elbowEdgeStyle;elbow=vertical;strokeWidth=1;endArrow=block;endFill=1;fontStyle=0;strokeColor=default;shadow=0;flowAnimation=0;startSize=6;fontFamily=Computer Modern;fontSize=16;fontSource=https%3A%2F%2Ffonts.googleapis.com%2Fcss%3Ffamily%3DComputer%2BModern;" edge="1" parent="1" source="4Zr4ibk4Q6zuj0zjEnXS-1" target="4Zr4ibk4Q6zuj0zjEnXS-2">
          <mxGeometry x="22" y="165.5" width="100" height="100" as="geometry">
            <mxPoint x="-218" y="245.5" as="sourcePoint" />
            <mxPoint x="-118" y="145.5" as="targetPoint" />
          </mxGeometry>
        </mxCell>
        <mxCell id="4Zr4ibk4Q6zuj0zjEnXS-6" value="" style="edgeStyle=elbowEdgeStyle;elbow=vertical;strokeWidth=1;endArrow=block;endFill=1;fontStyle=0;strokeColor=default;shadow=0;flowAnimation=0;startSize=6;fontFamily=Computer Modern;fontSize=16;fontSource=https%3A%2F%2Ffonts.googleapis.com%2Fcss%3Ffamily%3DComputer%2BModern;" edge="1" parent="1" source="4Zr4ibk4Q6zuj0zjEnXS-2" target="4Zr4ibk4Q6zuj0zjEnXS-3">
          <mxGeometry x="22" y="165.5" width="100" height="100" as="geometry">
            <mxPoint x="-218" y="245.5" as="sourcePoint" />
            <mxPoint x="-118" y="145.5" as="targetPoint" />
          </mxGeometry>
        </mxCell>
        <mxCell id="4Zr4ibk4Q6zuj0zjEnXS-7" value="" style="edgeStyle=elbowEdgeStyle;elbow=vertical;strokeWidth=1;endArrow=block;endFill=1;fontStyle=0;strokeColor=default;fontColor=default;labelBackgroundColor=default;rounded=1;curved=0;shadow=0;flowAnimation=0;startSize=6;fontFamily=Computer Modern;fontSize=16;fontSource=https%3A%2F%2Ffonts.googleapis.com%2Fcss%3Ffamily%3DComputer%2BModern;" edge="1" parent="1" source="4Zr4ibk4Q6zuj0zjEnXS-2" target="4Zr4ibk4Q6zuj0zjEnXS-4">
          <mxGeometry x="22" y="165.5" width="100" height="100" as="geometry">
            <mxPoint x="-218" y="245.5" as="sourcePoint" />
            <mxPoint x="-118" y="145.5" as="targetPoint" />
          </mxGeometry>
        </mxCell>
        <mxCell id="4Zr4ibk4Q6zuj0zjEnXS-8" value="Shared" style="rounded=1;fillColor=#BABABA;strokeColor=none;shadow=1;gradientColor=none;fontStyle=0;fontColor=default;fontSize=16;fontFamily=Computer Modern;fontSource=https%3A%2F%2Ffonts.googleapis.com%2Fcss%3Ffamily%3DComputer%2BModern;" vertex="1" parent="1">
          <mxGeometry x="680" y="580" width="190" height="50" as="geometry" />
        </mxCell>
        <mxCell id="4Zr4ibk4Q6zuj0zjEnXS-9" value="Shared" style="rounded=1;fillColor=#BABABA;strokeColor=none;shadow=1;gradientColor=none;fontStyle=0;fontColor=default;fontSize=16;fontFamily=Computer Modern;fontSource=https%3A%2F%2Ffonts.googleapis.com%2Fcss%3Ffamily%3DComputer%2BModern;" vertex="1" parent="1">
          <mxGeometry x="437" y="580" width="193" height="50" as="geometry" />
        </mxCell>
        <mxCell id="4Zr4ibk4Q6zuj0zjEnXS-10" value="" style="edgeStyle=elbowEdgeStyle;elbow=vertical;strokeWidth=1;endArrow=block;endFill=1;fontStyle=0;strokeColor=default;entryX=0.45;entryY=-0.05;entryDx=0;entryDy=0;entryPerimeter=0;exitX=0.5;exitY=1;exitDx=0;exitDy=0;shadow=0;flowAnimation=0;startSize=6;fontFamily=Computer Modern;fontSize=16;fontSource=https%3A%2F%2Ffonts.googleapis.com%2Fcss%3Ffamily%3DComputer%2BModern;" edge="1" parent="1" source="4Zr4ibk4Q6zuj0zjEnXS-4" target="4Zr4ibk4Q6zuj0zjEnXS-9">
          <mxGeometry x="22" y="165.5" width="100" height="100" as="geometry">
            <mxPoint x="661" y="495.5" as="sourcePoint" />
            <mxPoint x="531" y="551.5" as="targetPoint" />
          </mxGeometry>
        </mxCell>
        <mxCell id="4Zr4ibk4Q6zuj0zjEnXS-11" value="" style="edgeStyle=elbowEdgeStyle;elbow=vertical;strokeWidth=1;endArrow=block;endFill=1;fontStyle=0;strokeColor=default;entryX=0.54;entryY=-0.05;entryDx=0;entryDy=0;entryPerimeter=0;exitX=0.5;exitY=1;exitDx=0;exitDy=0;shadow=0;flowAnimation=0;startSize=6;fontFamily=Computer Modern;fontSize=16;fontSource=https%3A%2F%2Ffonts.googleapis.com%2Fcss%3Ffamily%3DComputer%2BModern;" edge="1" parent="1" source="4Zr4ibk4Q6zuj0zjEnXS-4" target="4Zr4ibk4Q6zuj0zjEnXS-8">
          <mxGeometry x="22" y="165.5" width="100" height="100" as="geometry">
            <mxPoint x="661" y="495.5" as="sourcePoint" />
            <mxPoint x="789" y="551.5" as="targetPoint" />
          </mxGeometry>
        </mxCell>
      </root>
    </mxGraphModel>
  </diagram>
  <diagram id="dpHPjryEs16BboOV0v19" name="Pagina-3">
    <mxGraphModel dx="1136" dy="617" grid="1" gridSize="10" guides="1" tooltips="1" connect="1" arrows="1" fold="1" page="1" pageScale="1" pageWidth="827" pageHeight="1169" math="0" shadow="0">
      <root>
        <mxCell id="0" />
        <mxCell id="1" parent="0" />
        <mxCell id="VLyv8HnNJZv4mXBcmU7d-5" value="&lt;font&gt;Applicazione&lt;/font&gt;" style="rounded=0;whiteSpace=wrap;html=1;fontFamily=Georgia;" vertex="1" parent="1">
          <mxGeometry x="300" y="360" width="140" height="40" as="geometry" />
        </mxCell>
        <mxCell id="VLyv8HnNJZv4mXBcmU7d-6" value="Presentazione" style="rounded=0;whiteSpace=wrap;html=1;fillColor=#f5f5f5;fontColor=#333333;strokeColor=#666666;fontFamily=Georgia;" vertex="1" parent="1">
          <mxGeometry x="300" y="420" width="140" height="40" as="geometry" />
        </mxCell>
        <mxCell id="VLyv8HnNJZv4mXBcmU7d-7" value="Sessione" style="rounded=0;whiteSpace=wrap;html=1;fillColor=#f5f5f5;fontColor=#333333;strokeColor=#666666;fontFamily=Georgia;" vertex="1" parent="1">
          <mxGeometry x="300" y="460" width="140" height="40" as="geometry" />
        </mxCell>
        <mxCell id="VLyv8HnNJZv4mXBcmU7d-8" value="Trasferimento" style="rounded=0;whiteSpace=wrap;html=1;fontFamily=Georgia;" vertex="1" parent="1">
          <mxGeometry x="300" y="520" width="140" height="40" as="geometry" />
        </mxCell>
        <mxCell id="VLyv8HnNJZv4mXBcmU7d-13" value="Rete" style="rounded=0;whiteSpace=wrap;html=1;fontFamily=Georgia;" vertex="1" parent="1">
          <mxGeometry x="300" y="560" width="140" height="40" as="geometry" />
        </mxCell>
        <mxCell id="VLyv8HnNJZv4mXBcmU7d-14" value="Collegamento" style="rounded=0;whiteSpace=wrap;html=1;fontFamily=Georgia;" vertex="1" parent="1">
          <mxGeometry x="300" y="600" width="140" height="40" as="geometry" />
        </mxCell>
        <mxCell id="VLyv8HnNJZv4mXBcmU7d-15" value="Livello fisico" style="rounded=0;whiteSpace=wrap;html=1;fontFamily=Georgia;" vertex="1" parent="1">
          <mxGeometry x="300" y="640" width="140" height="40" as="geometry" />
        </mxCell>
        <mxCell id="VLyv8HnNJZv4mXBcmU7d-19" value="" style="shape=curlyBracket;whiteSpace=wrap;html=1;rounded=1;flipH=1;labelPosition=right;verticalLabelPosition=middle;align=left;verticalAlign=middle;strokeWidth=2;size=0.5;fontSize=12;spacing=2;fontFamily=Georgia;" vertex="1" parent="1">
          <mxGeometry x="460" y="410" width="20" height="100" as="geometry" />
        </mxCell>
        <mxCell id="VLyv8HnNJZv4mXBcmU7d-24" value="&lt;i&gt;&lt;font style=&quot;font-size: 16px;&quot; face=&quot;Georgia&quot;&gt;Middleware DDS&lt;/font&gt;&lt;/i&gt;" style="text;html=1;align=center;verticalAlign=middle;resizable=0;points=[];autosize=1;strokeColor=none;fillColor=none;fontSize=18;" vertex="1" parent="1">
          <mxGeometry x="480" y="440" width="150" height="40" as="geometry" />
        </mxCell>
        <mxCell id="qQWGJeBHWRiaET2Ss2xA-1" value="" style="rounded=1;whiteSpace=wrap;html=1;strokeColor=none;fillColor=#BAC8D3;fontSize=24;fontColor=#23445D;align=center;opacity=20;" vertex="1" parent="1">
          <mxGeometry x="250" y="320" width="400" height="400" as="geometry" />
        </mxCell>
      </root>
    </mxGraphModel>
  </diagram>
</mxfile>
